<mxfile host="Electron" agent="Mozilla/5.0 (Macintosh; Intel Mac OS X 10_15_7) AppleWebKit/537.36 (KHTML, like Gecko) draw.io/24.7.17 Chrome/128.0.6613.36 Electron/32.0.1 Safari/537.36" version="24.7.17">
  <diagram id="ZdwTuiK6LGV12zfFTO1-" name="Page-1">
    <mxGraphModel dx="1463" dy="412" grid="1" gridSize="10" guides="1" tooltips="1" connect="1" arrows="1" fold="1" page="1" pageScale="1" pageWidth="827" pageHeight="1169" math="0" shadow="0">
      <root>
        <mxCell id="0" />
        <mxCell id="1" parent="0" />
        <mxCell id="b5Y4_zGtjNbEffgwSiQB-1" value="" style="rounded=1;whiteSpace=wrap;html=1;strokeColor=#B85450;fontColor=#1A1A1A;fillColor=none;strokeWidth=4;fontFamily=CMU Sans Serif;fontSize=13;" parent="1" vertex="1">
          <mxGeometry x="-125" y="10" width="490" height="240" as="geometry" />
        </mxCell>
        <mxCell id="ae70bi0Nxy2G-uHJ9-6V-10" style="edgeStyle=orthogonalEdgeStyle;rounded=0;orthogonalLoop=1;jettySize=auto;html=1;exitX=1;exitY=0.5;exitDx=0;exitDy=0;entryX=0.5;entryY=0;entryDx=0;entryDy=0;startArrow=classic;startFill=1;strokeColor=#B85450;fontColor=#1A1A1A;strokeWidth=2;fontFamily=CMU Sans Serif;fontSize=13;" parent="1" source="b5Y4_zGtjNbEffgwSiQB-2" target="ae70bi0Nxy2G-uHJ9-6V-1" edge="1">
          <mxGeometry relative="1" as="geometry" />
        </mxCell>
        <mxCell id="b5Y4_zGtjNbEffgwSiQB-2" value="System Manager" style="rounded=0;whiteSpace=wrap;html=1;strokeColor=#B85450;fontColor=#1A1A1A;fillColor=none;strokeWidth=2;fontFamily=CMU Sans Serif;fontSize=13;" parent="1" vertex="1">
          <mxGeometry x="55" y="48" width="120" height="35" as="geometry" />
        </mxCell>
        <mxCell id="b5Y4_zGtjNbEffgwSiQB-71" style="edgeStyle=orthogonalEdgeStyle;rounded=0;orthogonalLoop=1;jettySize=auto;html=1;exitX=0.25;exitY=0;exitDx=0;exitDy=0;entryX=0.378;entryY=0.981;entryDx=0;entryDy=0;entryPerimeter=0;fontSize=13;startArrow=none;startFill=0;endArrow=classic;endFill=1;strokeColor=#B85450;fontColor=#1A1A1A;strokeWidth=2;fontFamily=CMU Sans Serif;" parent="1" source="b5Y4_zGtjNbEffgwSiQB-4" target="b5Y4_zGtjNbEffgwSiQB-2" edge="1">
          <mxGeometry relative="1" as="geometry" />
        </mxCell>
        <mxCell id="ae70bi0Nxy2G-uHJ9-6V-9" style="edgeStyle=orthogonalEdgeStyle;rounded=0;orthogonalLoop=1;jettySize=auto;html=1;exitX=1;exitY=0.5;exitDx=0;exitDy=0;entryX=0.5;entryY=1;entryDx=0;entryDy=0;startArrow=classic;startFill=1;strokeColor=#B85450;fontColor=#1A1A1A;strokeWidth=2;fontFamily=CMU Sans Serif;fontSize=13;" parent="1" source="b5Y4_zGtjNbEffgwSiQB-4" target="ae70bi0Nxy2G-uHJ9-6V-1" edge="1">
          <mxGeometry relative="1" as="geometry" />
        </mxCell>
        <mxCell id="b5Y4_zGtjNbEffgwSiQB-4" value="Scheduler" style="rounded=0;whiteSpace=wrap;html=1;strokeColor=#B85450;fontColor=#1A1A1A;fillColor=none;strokeWidth=2;fontFamily=CMU Sans Serif;fontSize=13;" parent="1" vertex="1">
          <mxGeometry x="75" y="153" width="100" height="35" as="geometry" />
        </mxCell>
        <mxCell id="b5Y4_zGtjNbEffgwSiQB-5" value="Jobs" style="shape=cylinder3;whiteSpace=wrap;html=1;boundedLbl=1;backgroundOutline=1;size=6.818181818181628;strokeColor=#B85450;fontColor=#1A1A1A;fillColor=none;strokeWidth=2;fontFamily=CMU Sans Serif;fontSize=13;" parent="1" vertex="1">
          <mxGeometry x="277.01" y="54.5" width="78.75" height="39" as="geometry" />
        </mxCell>
        <mxCell id="b5Y4_zGtjNbEffgwSiQB-7" value="" style="rounded=1;whiteSpace=wrap;html=1;dashed=1;strokeColor=#B85450;fontColor=#1A1A1A;fillColor=none;strokeWidth=2;fontFamily=CMU Sans Serif;fontSize=13;" parent="1" vertex="1">
          <mxGeometry x="-111" y="20" width="140" height="220" as="geometry" />
        </mxCell>
        <mxCell id="b5Y4_zGtjNbEffgwSiQB-33" style="edgeStyle=orthogonalEdgeStyle;rounded=0;orthogonalLoop=1;jettySize=auto;html=1;exitX=0.5;exitY=1;exitDx=0;exitDy=0;entryX=0.5;entryY=0;entryDx=0;entryDy=0;startArrow=classic;startFill=1;endArrow=classic;endFill=1;strokeColor=#B85450;fontColor=#1A1A1A;strokeWidth=2;fontFamily=CMU Sans Serif;fontSize=13;" parent="1" source="b5Y4_zGtjNbEffgwSiQB-3" target="b5Y4_zGtjNbEffgwSiQB-31" edge="1">
          <mxGeometry relative="1" as="geometry" />
        </mxCell>
        <mxCell id="b5Y4_zGtjNbEffgwSiQB-3" value="Root Service Manager" style="rounded=0;whiteSpace=wrap;html=1;strokeColor=#B85450;fontColor=#1A1A1A;fillColor=none;strokeWidth=2;fontFamily=CMU Sans Serif;fontSize=13;" parent="1" vertex="1">
          <mxGeometry x="-100" y="68" width="120" height="60" as="geometry" />
        </mxCell>
        <mxCell id="b5Y4_zGtjNbEffgwSiQB-6" value="Routes" style="shape=cylinder3;whiteSpace=wrap;html=1;boundedLbl=1;backgroundOutline=1;size=7.999999999999915;strokeColor=#B85450;fontColor=#1A1A1A;fillColor=none;strokeWidth=2;fontFamily=CMU Sans Serif;fontSize=13;" parent="1" vertex="1">
          <mxGeometry x="-65" y="200" width="50" height="35" as="geometry" />
        </mxCell>
        <mxCell id="b5Y4_zGtjNbEffgwSiQB-9" value="mongo" style="rounded=0;whiteSpace=wrap;html=1;strokeColor=#B85450;fontColor=#1A1A1A;fillColor=none;strokeWidth=2;fontFamily=CMU Sans Serif;fontSize=13;" parent="1" vertex="1">
          <mxGeometry x="293.39" y="125" width="46" height="28" as="geometry" />
        </mxCell>
        <mxCell id="b5Y4_zGtjNbEffgwSiQB-24" value="" style="group;strokeColor=#B85450;fontColor=#1A1A1A;strokeWidth=2;fontFamily=CMU Sans Serif;fontSize=13;" parent="1" vertex="1" connectable="0">
          <mxGeometry x="143" y="103" width="10" height="30" as="geometry" />
        </mxCell>
        <mxCell id="b5Y4_zGtjNbEffgwSiQB-20" value="" style="rounded=0;whiteSpace=wrap;html=1;strokeColor=#B85450;fontColor=#1A1A1A;fillColor=none;strokeWidth=2;fontFamily=CMU Sans Serif;fontSize=13;" parent="b5Y4_zGtjNbEffgwSiQB-24" vertex="1">
          <mxGeometry width="10" height="10" as="geometry" />
        </mxCell>
        <mxCell id="b5Y4_zGtjNbEffgwSiQB-21" value="" style="rounded=0;whiteSpace=wrap;html=1;strokeColor=#B85450;fontColor=#1A1A1A;fillColor=none;strokeWidth=2;fontFamily=CMU Sans Serif;fontSize=13;" parent="b5Y4_zGtjNbEffgwSiQB-24" vertex="1">
          <mxGeometry y="10" width="10" height="10" as="geometry" />
        </mxCell>
        <mxCell id="b5Y4_zGtjNbEffgwSiQB-22" value="" style="rounded=0;whiteSpace=wrap;html=1;strokeColor=#B85450;fontColor=#1A1A1A;fillColor=none;strokeWidth=2;fontFamily=CMU Sans Serif;fontSize=13;" parent="b5Y4_zGtjNbEffgwSiQB-24" vertex="1">
          <mxGeometry y="20" width="10" height="10" as="geometry" />
        </mxCell>
        <mxCell id="b5Y4_zGtjNbEffgwSiQB-25" value="celery" style="text;html=1;strokeColor=none;fillColor=none;align=center;verticalAlign=middle;whiteSpace=wrap;rounded=0;rotation=-90;fontColor=#1A1A1A;strokeWidth=2;fontFamily=CMU Sans Serif;fontSize=13;" parent="1" vertex="1">
          <mxGeometry x="139" y="106" width="75" height="20" as="geometry" />
        </mxCell>
        <mxCell id="b5Y4_zGtjNbEffgwSiQB-29" style="edgeStyle=orthogonalEdgeStyle;rounded=0;orthogonalLoop=1;jettySize=auto;html=1;exitX=0;exitY=0.5;exitDx=0;exitDy=0;entryX=1;entryY=0.5;entryDx=0;entryDy=0;startArrow=classic;startFill=1;endArrow=classic;endFill=1;strokeColor=#B85450;fontColor=#1A1A1A;strokeWidth=2;fontFamily=CMU Sans Serif;fontSize=13;" parent="1" source="b5Y4_zGtjNbEffgwSiQB-2" target="b5Y4_zGtjNbEffgwSiQB-3" edge="1">
          <mxGeometry relative="1" as="geometry">
            <Array as="points">
              <mxPoint x="35" y="65" />
              <mxPoint x="35" y="98" />
            </Array>
          </mxGeometry>
        </mxCell>
        <mxCell id="b5Y4_zGtjNbEffgwSiQB-34" style="edgeStyle=orthogonalEdgeStyle;rounded=0;orthogonalLoop=1;jettySize=auto;html=1;exitX=0.5;exitY=1;exitDx=0;exitDy=0;entryX=0.5;entryY=0;entryDx=0;entryDy=0;entryPerimeter=0;startArrow=none;startFill=0;endArrow=none;endFill=0;strokeColor=#B85450;fontColor=#1A1A1A;strokeWidth=2;fontFamily=CMU Sans Serif;fontSize=13;" parent="1" source="b5Y4_zGtjNbEffgwSiQB-31" target="b5Y4_zGtjNbEffgwSiQB-6" edge="1">
          <mxGeometry relative="1" as="geometry" />
        </mxCell>
        <mxCell id="b5Y4_zGtjNbEffgwSiQB-31" value="mongo net" style="rounded=0;whiteSpace=wrap;html=1;strokeColor=#B85450;fontColor=#1A1A1A;fillColor=none;strokeWidth=2;fontFamily=CMU Sans Serif;fontSize=13;" parent="1" vertex="1">
          <mxGeometry x="-85" y="158" width="90" height="34" as="geometry" />
        </mxCell>
        <mxCell id="b5Y4_zGtjNbEffgwSiQB-39" value="&lt;b style=&quot;font-size: 16px;&quot;&gt;&lt;font style=&quot;font-size: 16px;&quot;&gt;Root Orchestrator&lt;/font&gt;&lt;/b&gt;" style="text;html=1;strokeColor=none;fillColor=none;align=center;verticalAlign=middle;whiteSpace=wrap;rounded=0;dashed=1;fontColor=#1A1A1A;strokeWidth=2;fontFamily=CMU Sans Serif;fontSize=16;" parent="1" vertex="1">
          <mxGeometry x="206.5" y="10" width="137.5" height="30" as="geometry" />
        </mxCell>
        <mxCell id="b5Y4_zGtjNbEffgwSiQB-40" value="&lt;b style=&quot;font-size: 14px;&quot;&gt;&lt;font style=&quot;font-size: 14px;&quot;&gt;Root Network Component&lt;/font&gt;&lt;/b&gt;" style="text;html=1;strokeColor=none;fillColor=none;align=center;verticalAlign=middle;whiteSpace=wrap;rounded=0;dashed=1;fontColor=#1A1A1A;strokeWidth=2;fontFamily=CMU Sans Serif;fontSize=14;" parent="1" vertex="1">
          <mxGeometry x="-100" y="28" width="120" height="30" as="geometry" />
        </mxCell>
        <mxCell id="b5Y4_zGtjNbEffgwSiQB-74" value="" style="endArrow=classic;startArrow=none;html=1;rounded=0;fontSize=13;entryX=0.25;entryY=1;entryDx=0;entryDy=0;strokeColor=#B85450;fontColor=#1A1A1A;strokeWidth=2;fontFamily=CMU Sans Serif;endFill=1;startFill=0;" parent="1" target="b5Y4_zGtjNbEffgwSiQB-2" edge="1">
          <mxGeometry width="50" height="50" relative="1" as="geometry">
            <mxPoint x="55" y="270" as="sourcePoint" />
            <mxPoint x="105" y="230" as="targetPoint" />
            <Array as="points">
              <mxPoint x="55" y="130" />
              <mxPoint x="85" y="130" />
            </Array>
          </mxGeometry>
        </mxCell>
        <mxCell id="ae70bi0Nxy2G-uHJ9-6V-11" style="edgeStyle=orthogonalEdgeStyle;rounded=0;orthogonalLoop=1;jettySize=auto;html=1;exitX=1;exitY=0.5;exitDx=0;exitDy=0;entryX=0;entryY=0.5;entryDx=0;entryDy=0;startArrow=classic;startFill=1;strokeColor=#B85450;fontColor=#1A1A1A;strokeWidth=2;fontFamily=CMU Sans Serif;fontSize=13;" parent="1" source="ae70bi0Nxy2G-uHJ9-6V-1" target="b5Y4_zGtjNbEffgwSiQB-9" edge="1">
          <mxGeometry relative="1" as="geometry" />
        </mxCell>
        <mxCell id="ae70bi0Nxy2G-uHJ9-6V-1" value="Resource Abstractor" style="rounded=0;whiteSpace=wrap;html=1;strokeColor=#B85450;fontColor=#1A1A1A;fillColor=none;strokeWidth=2;fontFamily=CMU Sans Serif;fontSize=13;" parent="1" vertex="1">
          <mxGeometry x="185" y="90.5" width="72.5" height="55" as="geometry" />
        </mxCell>
        <mxCell id="ae70bi0Nxy2G-uHJ9-6V-5" value="Clusters" style="shape=cylinder3;whiteSpace=wrap;html=1;boundedLbl=1;backgroundOutline=1;size=6.818181818181628;strokeColor=#B85450;fontColor=#1A1A1A;fillColor=none;strokeWidth=2;fontFamily=CMU Sans Serif;fontSize=13;" parent="1" vertex="1">
          <mxGeometry x="277.01" y="184.5" width="78.75" height="39" as="geometry" />
        </mxCell>
        <mxCell id="ae70bi0Nxy2G-uHJ9-6V-12" style="edgeStyle=orthogonalEdgeStyle;rounded=0;orthogonalLoop=1;jettySize=auto;html=1;exitX=0.5;exitY=0;exitDx=0;exitDy=0;entryX=0.5;entryY=1;entryDx=0;entryDy=0;entryPerimeter=0;startArrow=classic;startFill=1;strokeColor=#B85450;fontColor=#1A1A1A;strokeWidth=2;fontFamily=CMU Sans Serif;fontSize=13;" parent="1" source="b5Y4_zGtjNbEffgwSiQB-9" target="b5Y4_zGtjNbEffgwSiQB-5" edge="1">
          <mxGeometry relative="1" as="geometry" />
        </mxCell>
        <mxCell id="ae70bi0Nxy2G-uHJ9-6V-13" style="edgeStyle=orthogonalEdgeStyle;rounded=0;orthogonalLoop=1;jettySize=auto;html=1;exitX=0.5;exitY=1;exitDx=0;exitDy=0;entryX=0.5;entryY=0;entryDx=0;entryDy=0;entryPerimeter=0;startArrow=classic;startFill=1;strokeColor=#B85450;fontColor=#1A1A1A;strokeWidth=2;fontFamily=CMU Sans Serif;fontSize=13;" parent="1" source="b5Y4_zGtjNbEffgwSiQB-9" target="ae70bi0Nxy2G-uHJ9-6V-5" edge="1">
          <mxGeometry relative="1" as="geometry" />
        </mxCell>
        <mxCell id="ae70bi0Nxy2G-uHJ9-6V-19" value="" style="endArrow=none;html=1;rounded=0;endSize=0;strokeColor=#B85450;fontColor=#1A1A1A;strokeWidth=2;fontFamily=CMU Sans Serif;fontSize=13;" parent="1" edge="1">
          <mxGeometry width="50" height="50" relative="1" as="geometry">
            <mxPoint x="148" y="83" as="sourcePoint" />
            <mxPoint x="148" y="103" as="targetPoint" />
          </mxGeometry>
        </mxCell>
        <mxCell id="ae70bi0Nxy2G-uHJ9-6V-20" value="" style="endArrow=classic;html=1;rounded=0;strokeColor=#B85450;fontColor=#1A1A1A;strokeWidth=2;fontFamily=CMU Sans Serif;fontSize=13;" parent="1" edge="1">
          <mxGeometry width="50" height="50" relative="1" as="geometry">
            <mxPoint x="148" y="133" as="sourcePoint" />
            <mxPoint x="148" y="154" as="targetPoint" />
          </mxGeometry>
        </mxCell>
        <mxCell id="7DPPI_fn01xbORrIhxtW-2" style="edgeStyle=none;rounded=1;orthogonalLoop=1;jettySize=auto;html=1;exitX=0.5;exitY=1;exitDx=0;exitDy=0;entryX=0.5;entryY=0;entryDx=0;entryDy=0;fontFamily=CMU Sans Serif;fontSize=36;endArrow=none;endFill=0;strokeWidth=6;fillColor=#f8cecc;strokeColor=#b85450;" parent="1" source="7DPPI_fn01xbORrIhxtW-3" target="7DPPI_fn01xbORrIhxtW-7" edge="1">
          <mxGeometry relative="1" as="geometry" />
        </mxCell>
        <mxCell id="7DPPI_fn01xbORrIhxtW-41" style="rounded=0;orthogonalLoop=1;jettySize=auto;html=1;exitX=1;exitY=0;exitDx=0;exitDy=0;entryX=0.102;entryY=-0.004;entryDx=0;entryDy=0;endArrow=none;endFill=0;strokeWidth=5;strokeColor=#B85450;dashed=1;entryPerimeter=0;" parent="1" source="7DPPI_fn01xbORrIhxtW-3" target="b5Y4_zGtjNbEffgwSiQB-1" edge="1">
          <mxGeometry relative="1" as="geometry" />
        </mxCell>
        <mxCell id="7DPPI_fn01xbORrIhxtW-42" style="rounded=0;orthogonalLoop=1;jettySize=auto;html=1;exitX=1;exitY=1;exitDx=0;exitDy=0;entryX=0.002;entryY=0.856;entryDx=0;entryDy=0;endArrow=none;endFill=0;strokeWidth=5;strokeColor=#B85450;dashed=1;entryPerimeter=0;" parent="1" source="7DPPI_fn01xbORrIhxtW-3" target="b5Y4_zGtjNbEffgwSiQB-1" edge="1">
          <mxGeometry relative="1" as="geometry" />
        </mxCell>
        <mxCell id="7DPPI_fn01xbORrIhxtW-3" value="" style="rounded=1;whiteSpace=wrap;html=1;strokeWidth=3;shadow=1;sketch=0;fillColor=#B85450;strokeColor=#b85450;fontFamily=CMU Sans Serif;" parent="1" vertex="1">
          <mxGeometry x="-310" y="10" width="148.5" height="40" as="geometry" />
        </mxCell>
        <mxCell id="7DPPI_fn01xbORrIhxtW-5" style="edgeStyle=none;rounded=1;orthogonalLoop=1;jettySize=auto;html=1;exitX=0.5;exitY=1;exitDx=0;exitDy=0;entryX=0.5;entryY=0;entryDx=0;entryDy=0;fontFamily=CMU Sans Serif;fontSize=36;endArrow=none;endFill=0;strokeWidth=6;fillColor=#dae8fc;strokeColor=#6c8ebf;" parent="1" source="7DPPI_fn01xbORrIhxtW-7" target="7DPPI_fn01xbORrIhxtW-17" edge="1">
          <mxGeometry relative="1" as="geometry" />
        </mxCell>
        <mxCell id="7DPPI_fn01xbORrIhxtW-6" style="edgeStyle=none;rounded=1;orthogonalLoop=1;jettySize=auto;html=1;exitX=0.5;exitY=1;exitDx=0;exitDy=0;entryX=0.5;entryY=0;entryDx=0;entryDy=0;fontFamily=CMU Sans Serif;fontSize=36;endArrow=none;endFill=0;strokeWidth=6;fillColor=#dae8fc;strokeColor=#6c8ebf;" parent="1" source="7DPPI_fn01xbORrIhxtW-7" target="7DPPI_fn01xbORrIhxtW-16" edge="1">
          <mxGeometry relative="1" as="geometry" />
        </mxCell>
        <mxCell id="7DPPI_fn01xbORrIhxtW-7" value="" style="rounded=1;whiteSpace=wrap;html=1;strokeWidth=3;shadow=1;sketch=0;fillColor=#6C8EBF;strokeColor=#6c8ebf;fontFamily=CMU Sans Serif;" parent="1" vertex="1">
          <mxGeometry x="-310" y="102.5" width="149.25" height="37.5" as="geometry" />
        </mxCell>
        <mxCell id="7DPPI_fn01xbORrIhxtW-16" value="" style="rounded=1;whiteSpace=wrap;html=1;strokeWidth=3;shadow=1;sketch=0;fillColor=#82B366;strokeColor=#82B366;fontFamily=CMU Sans Serif;" parent="1" vertex="1">
          <mxGeometry x="-344" y="180" width="81.25" height="37.5" as="geometry" />
        </mxCell>
        <mxCell id="7DPPI_fn01xbORrIhxtW-17" value="" style="rounded=1;whiteSpace=wrap;html=1;strokeWidth=3;shadow=1;sketch=0;fillColor=#82B366;strokeColor=#82b366;fontFamily=CMU Sans Serif;" parent="1" vertex="1">
          <mxGeometry x="-224" y="183.75" width="80" height="35" as="geometry" />
        </mxCell>
        <mxCell id="7DPPI_fn01xbORrIhxtW-18" style="rounded=0;orthogonalLoop=1;jettySize=auto;html=1;exitX=1;exitY=0.5;exitDx=0;exitDy=0;fontFamily=CMU Sans Serif;fontSize=36;dashed=1;endArrow=none;endFill=0;dashPattern=1 1;strokeWidth=6;fontColor=#1A1A1A;" parent="1" edge="1">
          <mxGeometry relative="1" as="geometry">
            <mxPoint x="-259" y="202.19999999999993" as="sourcePoint" />
            <mxPoint x="-222.75" y="201.5" as="targetPoint" />
          </mxGeometry>
        </mxCell>
        <mxCell id="7DPPI_fn01xbORrIhxtW-19" style="edgeStyle=none;rounded=1;orthogonalLoop=1;jettySize=auto;html=1;entryX=0;entryY=0.5;entryDx=0;entryDy=0;fontFamily=CMU Sans Serif;fontSize=36;endArrow=none;endFill=0;strokeWidth=6;" parent="1" source="7DPPI_fn01xbORrIhxtW-17" target="7DPPI_fn01xbORrIhxtW-17" edge="1">
          <mxGeometry relative="1" as="geometry" />
        </mxCell>
        <mxCell id="7DPPI_fn01xbORrIhxtW-27" value="&lt;b style=&quot;color: rgb(0 , 0 , 0)&quot;&gt;&lt;font color=&quot;#ffffff&quot; style=&quot;font-size: 16px;&quot;&gt;Root Orchestrator&lt;/font&gt;&lt;/b&gt;" style="text;html=1;strokeColor=none;fillColor=none;align=center;verticalAlign=middle;whiteSpace=wrap;rounded=0;sketch=0;fontColor=#FFFFFF;fontFamily=CMU Sans Serif;" parent="1" vertex="1">
          <mxGeometry x="-314.75" y="14.5" width="153.25" height="30" as="geometry" />
        </mxCell>
        <mxCell id="7DPPI_fn01xbORrIhxtW-30" value="&lt;b style=&quot;color: rgb(0 , 0 , 0)&quot;&gt;&lt;font color=&quot;#ffffff&quot; style=&quot;font-size: 16px;&quot;&gt;Cluster Orchestrator&lt;/font&gt;&lt;/b&gt;" style="text;html=1;strokeColor=none;fillColor=none;align=center;verticalAlign=middle;whiteSpace=wrap;rounded=0;sketch=0;fontColor=#FFFFFF;fontFamily=CMU Sans Serif;" parent="1" vertex="1">
          <mxGeometry x="-328" y="106.25" width="185" height="30" as="geometry" />
        </mxCell>
        <mxCell id="7DPPI_fn01xbORrIhxtW-31" value="&lt;b style=&quot;color: rgb(0 , 0 , 0)&quot;&gt;&lt;font color=&quot;#ffffff&quot; style=&quot;&quot;&gt;&lt;font style=&quot;font-size: 16px;&quot;&gt;Worker&lt;/font&gt;&lt;br&gt;&lt;/font&gt;&lt;/b&gt;" style="text;html=1;strokeColor=none;fillColor=none;align=center;verticalAlign=middle;whiteSpace=wrap;rounded=0;sketch=0;fontColor=#FFFFFF;fontFamily=CMU Sans Serif;" parent="1" vertex="1">
          <mxGeometry x="-339.62" y="184.5" width="72.5" height="30" as="geometry" />
        </mxCell>
        <mxCell id="7DPPI_fn01xbORrIhxtW-32" value="&lt;b style=&quot;color: rgb(0 , 0 , 0)&quot;&gt;&lt;font color=&quot;#ffffff&quot; style=&quot;&quot;&gt;&lt;font style=&quot;font-size: 16px;&quot;&gt;Worker&lt;/font&gt;&lt;br&gt;&lt;/font&gt;&lt;/b&gt;" style="text;html=1;strokeColor=none;fillColor=none;align=center;verticalAlign=middle;whiteSpace=wrap;rounded=0;sketch=0;fontColor=#FFFFFF;fontFamily=CMU Sans Serif;" parent="1" vertex="1">
          <mxGeometry x="-235" y="186.25" width="110" height="30" as="geometry" />
        </mxCell>
        <mxCell id="7DPPI_fn01xbORrIhxtW-35" value="" style="endArrow=classic;html=1;rounded=0;fontFamily=CMU Sans Serif;fontColor=#FFFFFF;startSize=8;endSize=10;strokeWidth=3;curved=1;" parent="1" edge="1">
          <mxGeometry width="50" height="50" relative="1" as="geometry">
            <mxPoint x="-350" y="27" as="sourcePoint" />
            <mxPoint x="-310" y="27" as="targetPoint" />
          </mxGeometry>
        </mxCell>
        <mxCell id="7DPPI_fn01xbORrIhxtW-36" value="&lt;font style=&quot;font-size: 14px;&quot;&gt;Application&lt;/font&gt;" style="text;html=1;strokeColor=none;fillColor=none;align=center;verticalAlign=middle;whiteSpace=wrap;rounded=0;glass=0;sketch=0;fontFamily=CMU Sans Serif;fontColor=#1A1A1A;opacity=70;labelBackgroundColor=none;" parent="1" vertex="1">
          <mxGeometry x="-398" y="54.5" width="74" height="30" as="geometry" />
        </mxCell>
        <mxCell id="7DPPI_fn01xbORrIhxtW-37" value="" style="verticalLabelPosition=bottom;html=1;verticalAlign=top;align=center;strokeColor=none;fillColor=#00BEF2;shape=mxgraph.azure.code_file;pointerEvents=1;rounded=1;glass=0;labelBackgroundColor=default;labelBorderColor=#000000;sketch=0;fontFamily=CMU Sans Serif;fontSize=28;fontColor=#000000;opacity=70;" parent="1" vertex="1">
          <mxGeometry x="-393" y="4.5" width="44" height="50" as="geometry" />
        </mxCell>
        <mxCell id="7DPPI_fn01xbORrIhxtW-43" value="" style="endArrow=none;html=1;rounded=0;strokeColor=#B85450;dashed=1;fontFamily=CMU Sans Serif;fontColor=#1A1A1A;" parent="1" edge="1">
          <mxGeometry width="50" height="50" relative="1" as="geometry">
            <mxPoint x="55" y="300" as="sourcePoint" />
            <mxPoint x="55" y="270" as="targetPoint" />
          </mxGeometry>
        </mxCell>
        <mxCell id="YHIR4EgY5Bi_n7ECgCqi-1" value="Grafana&amp;nbsp;" style="rounded=0;whiteSpace=wrap;html=1;strokeColor=#B85450;fontColor=#1A1A1A;fillColor=none;strokeWidth=2;fontFamily=CMU Sans Serif;fontSize=13;" vertex="1" parent="1">
          <mxGeometry x="75" y="197.5" width="100" height="40" as="geometry" />
        </mxCell>
      </root>
    </mxGraphModel>
  </diagram>
</mxfile>
